<svg width="40" height="56" viewBox="0 0 40 56" fill="none" xmlns="http://www.w3.org/2000/svg">
  <defs>
    <linearGradient id="orangeGradient" x1="0" y1="0" x2="40" y2="56" gradientUnits="userSpaceOnUse">
      <stop offset="0%" stop-color="#FFA726" />
      <stop offset="100%" stop-color="#EF6C00" />
    </linearGradient>
    <filter id="dropShadow" x="-50%" y="-50%" width="200%" height="200%">
      <feGaussianBlur in="SourceAlpha" stdDeviation="2"/>
      <feOffset dx="0" dy="2" result="offsetblur"/>
      <feComponentTransfer>
        <feFuncA type="linear" slope="0.3"/>
      </feComponentTransfer>
      <feMerge> 
        <feMergeNode/>
        <feMergeNode in="SourceGraphic"/> 
      </feMerge>
    </filter>
  </defs>
  <path fill-rule="evenodd" clip-rule="evenodd" d="M20 0C8.954 0 0 8.954 0 20C0 35 20 56 20 56C20 56 40 35 40 20C40 8.954 31.046 0 20 0ZM20 28C24.418 28 28 24.418 28 20C28 15.582 24.418 12 20 12C15.582 12 12 15.582 12 20C12 24.418 15.582 28 20 28Z" fill="url(#orangeGradient)" filter="url(#dropShadow)"/>
</svg>
